<svg width="383" height="383" viewBox="0 0 383 383" fill="none" xmlns="http://www.w3.org/2000/svg">
<path d="M223.668 82.9678C234.582 84.6703 262.448 91.901 271.135 98.9723C273.37 100.791 277.925 109.014 279.665 112.012C294.205 136.873 302.875 164.727 305.013 193.448C305.205 196.117 305.538 198.193 305.62 200.955C303.313 201.874 300.643 202.607 298.248 203.471C292.908 205.401 287.94 208.233 283.56 211.843C271.765 221.583 266.205 234.796 264.765 249.772C262.208 251.235 258.915 252.255 256.19 253.325C245.648 257.47 236.794 258.768 225.589 259.823C225.189 254.055 224.856 246.543 225.795 240.771C225.892 240.174 227.739 239.085 228.34 238.84C237.107 235.269 245.604 231.865 253.835 227.104C252.25 225.859 250.993 224.937 249.338 223.797C247.291 224.127 244.038 225.591 242.006 226.355C237.563 228.028 233.143 230.066 228.558 231.31C201.946 238.528 175.797 237.656 149.453 230.122C144.809 228.581 137.412 226.006 133.468 223.298C131.802 224.349 129.742 225.905 128.086 227.066C132.994 230.36 138.692 232.594 144.018 234.932C146.84 236.171 156.77 238.714 156.861 241.907C156.941 244.71 157.685 258.39 156.306 260.253C154.833 260.77 151.467 259.82 149.758 259.548C139 257.823 130.193 255.03 120.081 251.143C119.384 248.097 119.195 244.626 118.588 241.459C116.761 232.047 112.298 223.349 105.718 216.375C99.699 209.956 92.1428 205.177 83.7633 202.491C81.5223 201.75 78.9953 200.991 76.6408 200.927C76.2035 195.796 77.1598 187.139 77.902 181.999C81.2885 158.001 89.138 134.85 101.045 113.741C103.106 110.037 108.903 99.2638 112.078 97.5573C125.433 90.3795 142.727 85.7455 157.613 83.1473L157.782 83.2835C162.476 87.0035 161.633 94.533 166.557 95.0143C169.734 95.3248 175.224 93.6633 178.619 93.6408C190.875 93.5593 205.254 92.4485 217.171 95.685C218.966 92.053 220.977 85.906 223.668 82.9678ZM230.719 201.6C243.289 201.092 250.878 188.598 250.28 176.659C249.686 164.834 241.51 155.257 229.247 154.677C229.07 154.669 228.841 154.746 228.663 154.797C225.502 155.516 221.785 156.23 219.116 158.083C201.223 170.509 207.076 201.695 230.719 201.6ZM154.06 201.679C159.442 200.952 164.715 197.543 167.994 193.306C176.096 182.836 174.378 166.477 163.48 158.616C159.805 155.965 155.037 154.436 150.465 155.068C144.367 156.102 139.717 158.32 136.045 163.502C128.755 173.788 129.811 190.086 140.52 197.687C144.192 200.294 149.51 202.433 154.06 201.679Z" fill="#FEFEFE"/>
<path d="M312.163 207.59C314.645 207.184 319.858 207.439 322.32 207.79C334.07 209.354 344.693 215.588 351.79 225.083C358.83 234.579 361.825 246.474 360.12 258.17C358.723 267.325 353.358 278.888 345.838 284.415C343.365 282.655 336.215 273.948 333.928 271.388C328.093 264.853 322.635 258.318 316.515 251.978L315.415 256.563C314.76 258.81 313.945 263.758 313.458 266.275L309.76 285.24C309.36 287.253 308.408 292.668 307.565 294.303C305.683 295.193 301.9 293.278 299.99 292.565C285.355 287.105 275.078 273.488 272.703 258.18C270.898 246.53 273.825 234.641 280.833 225.16C288.865 214.196 299.11 209.596 312.163 207.59Z" fill="#FEFEFE"/>
<path d="M63.6525 207.592C68.8122 206.765 77.1552 207.962 82.0622 209.618C93.2862 213.406 102.615 221.186 107.832 231.896C113.064 242.381 113.879 254.525 110.095 265.615C106.341 276.88 98.1942 286.15 87.504 291.318C85.665 292.218 78.7312 295.21 77.1242 294.655C75.8032 292.51 71.7562 269.308 70.9207 264.983C70.3195 260.983 69.0565 256.015 68.1417 252.015C61.0877 258.593 53.8757 268.18 47.1987 275.363C44.5062 278.26 41.7065 281.965 38.7125 284.51C31.2815 278.623 25.3642 266.813 24.3665 257.483C21.5748 231.368 38.0935 211.219 63.6525 207.592Z" fill="#FEFEFE"/>
<path d="M215.899 241.071C216.272 240.981 216.75 241.006 217.149 241.001C217.472 241.204 217.834 241.348 217.868 241.817C218.454 250.022 218.821 257.882 214.918 265.45C211.554 272.047 205.641 276.985 198.549 279.117C191.74 281.265 184.349 280.53 178.096 277.085C171.406 273.447 167.212 267.637 165.127 260.442C164.212 256.96 162.737 244.317 165.119 241.755C166.832 241.385 183.107 244.263 186.493 244.613C186.988 250.812 185.75 256.812 187.913 262.372C192.348 264.992 194.803 262.635 195.324 258.08C195.746 254.225 194.591 249.07 196.041 245.508C196.755 243.755 204.415 243.306 206.367 243.005C209.569 242.487 212.749 241.842 215.899 241.071Z" fill="#FEFEFE"/>
</svg>
